[ConversionWorker] Logging FFmpeg output to: ffmpeg_logs\ffmpeg_conversion_高冷_06_wav_20250525_173741.log\n[ConversionWorker] Getting duration with command: ffprobe -v error -show_entries format=duration -of default=noprint_wrappers=1:nokey=1 Z:\Story\高冷\高冷 06.wav\n[ConversionWorker] Duration for 高冷 06.wav: 3026188 ms\n[ConversionWorker] Starting FFmpeg for 高冷 06.wav: ffmpeg -i Z:\Story\高冷\高冷 06.wav -b:a 128k -vn -y -loglevel error -stats -progress pipe:1 Z:\Story\高冷\高冷 06.mp3\n[ConversionWorker] FFmpeg process started. PID: 28208\n[STDOUT RAW] bitrate= 123.9kbits/s\n[STDOUT RAW] total_size=80300\n[STDOUT RAW] out_time_us=5185958\n[STDOUT RAW] out_time_ms=5185958\n[STDOUT RAW] out_time=00:00:05.185958\n[STDOUT RAW] dup_frames=0\n[STDOUT RAW] drop_frames=0\n[STDOUT RAW] speed=9.86x\n[STDOUT RAW] progress=continue\n[STDERR RAW] size=      78KiB time=00:00:05.18 bitrate= 123.9kbits/s speed=9.86x\n[STDOUT RAW] bitrate= 125.8kbits/s\n[STDOUT RAW] total_size=156332\n[STDOUT RAW] out_time_us=9937958\n[STDOUT RAW] out_time_ms=9937958\n[STDOUT RAW] out_time=00:00:09.937958\n[STDOUT RAW] dup_frames=0\n[STDOUT RAW] drop_frames=0\n[STDOUT RAW] speed=9.64x\n[STDOUT RAW] progress=continue\n[STDERR RAW] size=     153KiB time=00:00:09.93 bitrate= 125.8kbits/s speed=9.64x\n[STDOUT RAW] bitrate= 126.5kbits/s\n[STDOUT RAW] total_size=231212\n[STDOUT RAW] out_time_us=14617958\n[STDOUT RAW] out_time_ms=14617958\n[STDOUT RAW] out_time=00:00:14.617958\n[STDOUT RAW] dup_frames=0\n[STDOUT RAW] drop_frames=0\n[STDOUT RAW] speed=9.44x\n[STDOUT RAW] progress=continue\n[STDERR RAW] size=     226KiB time=00:00:14.61 bitrate= 126.5kbits/s speed=9.44x\n[STDOUT RAW] bitrate= 119.3kbits/s\n[STDOUT RAW] total_size=1310720\n[STDOUT RAW] out_time_us=87865958\n[STDOUT RAW] out_time_ms=87865958\n[STDOUT RAW] out_time=00:01:27.865958\n[STDOUT RAW] dup_frames=0\n[STDOUT RAW] drop_frames=0\n[STDOUT RAW] speed=42.5x\n[STDOUT RAW] progress=continue\n[STDERR RAW] size=    1280KiB time=00:01:27.86 bitrate= 119.3kbits/s speed=42.5x\n[STDOUT RAW] bitrate= 126.1kbits/s\n[STDOUT RAW] total_size=3145728\n[STDOUT RAW] out_time_us=199633958\n[STDOUT RAW] out_time_ms=199633958\n[STDOUT RAW] out_time=00:03:19.633958\n[STDOUT RAW] dup_frames=0\n[STDOUT RAW] drop_frames=0\n[STDOUT RAW] speed=77.5x\n[STDOUT RAW] progress=continue\n[STDERR RAW] size=    3072KiB time=00:03:19.63 bitrate= 126.1kbits/s speed=77.5x\n[STDOUT RAW] bitrate= 123.0kbits/s\n[STDOUT RAW] total_size=4718592\n[STDOUT RAW] out_time_us=306937958\n[STDOUT RAW] out_time_ms=306937958\n[STDOUT RAW] out_time=00:05:06.937958\n[STDOUT RAW] dup_frames=0\n[STDOUT RAW] drop_frames=0\n[STDOUT RAW] speed=99.3x\n[STDOUT RAW] progress=continue\n[STDERR RAW] size=    4608KiB time=00:05:06.93 bitrate= 123.0kbits/s speed=99.3x\n[STDOUT RAW] bitrate= 122.8kbits/s\n[STDOUT RAW] total_size=6291456\n[STDOUT RAW] out_time_us=409729958\n[STDOUT RAW] out_time_ms=409729958\n[STDOUT RAW] out_time=00:06:49.729958\n[STDOUT RAW] dup_frames=0\n[STDOUT RAW] drop_frames=0\n[STDOUT RAW] speed= 113x\n[STDOUT RAW] progress=continue\n[STDERR RAW] size=    6144KiB time=00:06:49.72 bitrate= 122.8kbits/s speed= 113x\n[STDOUT RAW] bitrate= 127.0kbits/s\n[STDOUT RAW] total_size=8126464\n[STDOUT RAW] out_time_us=511921958\n[STDOUT RAW] out_time_ms=511921958\n[STDOUT RAW] out_time=00:08:31.921958\n[STDOUT RAW] dup_frames=0\n[STDOUT RAW] drop_frames=0\n[STDOUT RAW] speed= 124x\n[STDOUT RAW] progress=continue\n[STDERR RAW] size=    7936KiB time=00:08:31.92 bitrate= 127.0kbits/s speed= 124x\n[STDOUT RAW] bitrate= 126.4kbits/s\n[STDOUT RAW] total_size=9699328\n[STDOUT RAW] out_time_us=613873958\n[STDOUT RAW] out_time_ms=613873958\n[STDOUT RAW] out_time=00:10:13.873958\n[STDOUT RAW] dup_frames=0\n[STDOUT RAW] drop_frames=0\n[STDOUT RAW] speed= 132x\n[STDOUT RAW] progress=continue\n[STDERR RAW] size=    9472KiB time=00:10:13.87 bitrate= 126.4kbits/s speed= 132x\n[STDOUT RAW] bitrate= 125.1kbits/s\n[STDOUT RAW] total_size=11272192\n[STDOUT RAW] out_time_us=721033958\n[STDOUT RAW] out_time_ms=721033958\n[STDOUT RAW] out_time=00:12:01.033958\n[STDOUT RAW] dup_frames=0\n[STDOUT RAW] drop_frames=0\n[STDOUT RAW] speed= 140x\n[STDOUT RAW] progress=continue\n[STDERR RAW] size=   11008KiB time=00:12:01.03 bitrate= 125.1kbits/s speed= 140x\n[STDOUT RAW] bitrate= 125.4kbits/s\n[STDOUT RAW] total_size=12845056\n[STDOUT RAW] out_time_us=819337958\n[STDOUT RAW] out_time_ms=819337958\n[STDOUT RAW] out_time=00:13:39.337958\n[STDOUT RAW] dup_frames=0\n[STDOUT RAW] drop_frames=0\n[STDOUT RAW] speed= 144x\n[STDOUT RAW] progress=continue\n[STDERR RAW] size=   12544KiB time=00:13:39.33 bitrate= 125.4kbits/s speed= 144x\n[STDOUT RAW] bitrate= 127.5kbits/s\n[STDOUT RAW] total_size=14680064\n[STDOUT RAW] out_time_us=921241958\n[STDOUT RAW] out_time_ms=921241958\n[STDOUT RAW] out_time=00:15:21.241958\n[STDOUT RAW] dup_frames=0\n[STDOUT RAW] drop_frames=0\n[STDOUT RAW] speed= 149x\n[STDOUT RAW] progress=continue\n[STDERR RAW] size=   14336KiB time=00:15:21.24 bitrate= 127.5kbits/s speed= 149x\n[STDOUT RAW] bitrate= 127.0kbits/s\n[STDOUT RAW] total_size=16252928\n[STDOUT RAW] out_time_us=1023577958\n[STDOUT RAW] out_time_ms=1023577958\n[STDOUT RAW] out_time=00:17:03.577958\n[STDOUT RAW] dup_frames=0\n[STDOUT RAW] drop_frames=0\n[STDOUT RAW] speed= 153x\n[STDOUT RAW] progress=continue\n[STDERR RAW] size=   15872KiB time=00:17:03.57 bitrate= 127.0kbits/s speed= 153x\n[STDOUT RAW] bitrate= 127.5kbits/s\n[STDOUT RAW] total_size=17825792\n[STDOUT RAW] out_time_us=1118233958\n[STDOUT RAW] out_time_ms=1118233958\n[STDOUT RAW] out_time=00:18:38.233958\n[STDOUT RAW] dup_frames=0\n[STDOUT RAW] drop_frames=0\n[STDOUT RAW] speed= 155x\n[STDOUT RAW] progress=continue\n[STDERR RAW] size=   17408KiB time=00:18:38.23 bitrate= 127.5kbits/s speed= 155x\n[STDOUT RAW] bitrate= 127.5kbits/s\n[STDOUT RAW] total_size=19398656\n[STDOUT RAW] out_time_us=1216921958\n[STDOUT RAW] out_time_ms=1216921958\n[STDOUT RAW] out_time=00:20:16.921958\n[STDOUT RAW] dup_frames=0\n[STDOUT RAW] drop_frames=0\n[STDOUT RAW] speed= 157x\n[STDOUT RAW] progress=continue\n[STDERR RAW] size=   18944KiB time=00:20:16.92 bitrate= 127.5kbits/s speed= 157x\n[STDOUT RAW] bitrate= 126.4kbits/s\n[STDOUT RAW] total_size=20709376\n[STDOUT RAW] out_time_us=1310857958\n[STDOUT RAW] out_time_ms=1310857958\n[STDOUT RAW] out_time=00:21:50.857958\n[STDOUT RAW] dup_frames=0\n[STDOUT RAW] drop_frames=0\n[STDOUT RAW] speed= 159x\n[STDOUT RAW] progress=continue\n[STDERR RAW] size=   20224KiB time=00:21:50.85 bitrate= 126.4kbits/s speed= 159x\n[STDOUT RAW] bitrate= 127.7kbits/s\n[STDOUT RAW] total_size=22282240\n[STDOUT RAW] out_time_us=1395697958\n[STDOUT RAW] out_time_ms=1395697958\n[STDOUT RAW] out_time=00:23:15.697958\n[STDOUT RAW] dup_frames=0\n[STDOUT RAW] drop_frames=0\n[STDOUT RAW] speed= 159x\n[STDOUT RAW] progress=continue\n[STDERR RAW] size=   21760KiB time=00:23:15.69 bitrate= 127.7kbits/s speed= 159x\n[STDOUT RAW] bitrate= 126.6kbits/s\n[STDOUT RAW] total_size=23330816\n[STDOUT RAW] out_time_us=1474681958\n[STDOUT RAW] out_time_ms=1474681958\n[STDOUT RAW] out_time=00:24:34.681958\n[STDOUT RAW] dup_frames=0\n[STDOUT RAW] drop_frames=0\n[STDOUT RAW] speed= 159x\n[STDOUT RAW] progress=continue\n[STDERR RAW] size=   22784KiB time=00:24:34.68 bitrate= 126.6kbits/s speed= 159x\n[STDOUT RAW] bitrate= 126.6kbits/s\n[STDOUT RAW] total_size=24641536\n[STDOUT RAW] out_time_us=1556617958\n[STDOUT RAW] out_time_ms=1556617958\n[STDOUT RAW] out_time=00:25:56.617958\n[STDOUT RAW] dup_frames=0\n[STDOUT RAW] drop_frames=0\n[STDOUT RAW] speed= 159x\n[STDOUT RAW] progress=continue\n[STDERR RAW] size=   24064KiB time=00:25:56.61 bitrate= 126.6kbits/s speed= 159x\n[STDOUT RAW] bitrate= 127.9kbits/s\n[STDOUT RAW] total_size=26214400\n[STDOUT RAW] out_time_us=1639945958\n[STDOUT RAW] out_time_ms=1639945958\n[STDOUT RAW] out_time=00:27:19.945958\n[STDOUT RAW] dup_frames=0\n[STDOUT RAW] drop_frames=0\n[STDOUT RAW] speed= 159x\n[STDOUT RAW] progress=continue\n[STDERR RAW] size=   25600KiB time=00:27:19.94 bitrate= 127.9kbits/s speed= 159x\n[STDOUT RAW] bitrate= 127.2kbits/s\n[STDOUT RAW] total_size=27525120\n[STDOUT RAW] out_time_us=1730545958\n[STDOUT RAW] out_time_ms=1730545958\n[STDOUT RAW] out_time=00:28:50.545958\n[STDOUT RAW] dup_frames=0\n[STDOUT RAW] drop_frames=0\n[STDOUT RAW] speed= 160x\n[STDOUT RAW] progress=continue\n[STDERR RAW] size=   26880KiB time=00:28:50.54 bitrate= 127.2kbits/s speed= 160x\n[STDOUT RAW] bitrate= 127.7kbits/s\n[STDOUT RAW] total_size=29097984\n[STDOUT RAW] out_time_us=1822249958\n[STDOUT RAW] out_time_ms=1822249958\n[STDOUT RAW] out_time=00:30:22.249958\n[STDOUT RAW] dup_frames=0\n[STDOUT RAW] drop_frames=0\n[STDOUT RAW] speed= 161x\n[STDOUT RAW] progress=continue\n[STDERR RAW] size=   28416KiB time=00:30:22.24 bitrate= 127.7kbits/s speed= 161x\n[STDOUT RAW] bitrate= 126.9kbits/s\n[STDOUT RAW] total_size=30408704\n[STDOUT RAW] out_time_us=1917049958\n[STDOUT RAW] out_time_ms=1917049958\n[STDOUT RAW] out_time=00:31:57.049958\n[STDOUT RAW] dup_frames=0\n[STDOUT RAW] drop_frames=0\n[STDOUT RAW] speed= 162x\n[STDOUT RAW] progress=continue\n[STDERR RAW] size=   29696KiB time=00:31:57.04 bitrate= 126.9kbits/s speed= 162x\n[STDOUT RAW] bitrate= 127.1kbits/s\n[STDOUT RAW] total_size=31981568\n[STDOUT RAW] out_time_us=2012809958\n[STDOUT RAW] out_time_ms=2012809958\n[STDOUT RAW] out_time=00:33:32.809958\n[STDOUT RAW] dup_frames=0\n[STDOUT RAW] drop_frames=0\n[STDOUT RAW] speed= 163x\n[STDOUT RAW] progress=continue\n[STDERR RAW] size=   31232KiB time=00:33:32.80 bitrate= 127.1kbits/s speed= 163x\n[STDOUT RAW] bitrate= 127.7kbits/s\n[STDOUT RAW] total_size=33554432\n[STDOUT RAW] out_time_us=2101753958\n[STDOUT RAW] out_time_ms=2101753958\n[STDOUT RAW] out_time=00:35:01.753958\n[STDOUT RAW] dup_frames=0\n[STDOUT RAW] drop_frames=0\n[STDOUT RAW] speed= 163x\n[STDOUT RAW] progress=continue\n[STDOUT RAW] bitrate= 127.2kbits/s\n[STDOUT RAW] total_size=34865152\n[STDERR RAW] size=   32768KiB time=00:35:01.75 bitrate= 127.7kbits/s speed= 163x\n[STDOUT RAW] out_time_us=2193025958\n[STDOUT RAW] out_time_ms=2193025958\n[STDOUT RAW] out_time=00:36:33.025958\n[STDOUT RAW] dup_frames=0\n[STDOUT RAW] drop_frames=0\n[STDOUT RAW] speed= 164x\n[STDOUT RAW] progress=continue\n[STDERR RAW] size=   34048KiB time=00:36:33.02 bitrate= 127.2kbits/s speed= 164x\n[STDOUT RAW] bitrate= 127.9kbits/s\n[STDOUT RAW] total_size=36700160\n[STDOUT RAW] out_time_us=2294809958\n[STDOUT RAW] out_time_ms=2294809958\n[STDOUT RAW] out_time=00:38:14.809958\n[STDOUT RAW] dup_frames=0\n[STDOUT RAW] drop_frames=0\n[STDOUT RAW] speed= 165x\n[STDOUT RAW] progress=continue\n[STDERR RAW] size=   35840KiB time=00:38:14.80 bitrate= 127.9kbits/s speed= 165x\n[STDOUT RAW] bitrate= 127.7kbits/s\n[STDOUT RAW] total_size=38273024\n[STDOUT RAW] out_time_us=2397505958\n[STDOUT RAW] out_time_ms=2397505958\n[STDOUT RAW] out_time=00:39:57.505958\n[STDOUT RAW] dup_frames=0\n[STDOUT RAW] drop_frames=0\n[STDOUT RAW] speed= 166x\n[STDOUT RAW] progress=continue\n[STDERR RAW] size=   37376KiB time=00:39:57.50 bitrate= 127.7kbits/s speed= 166x\n[STDOUT RAW] bitrate= 127.7kbits/s\n[STDOUT RAW] total_size=39845888\n[STDOUT RAW] out_time_us=2495977958\n[STDOUT RAW] out_time_ms=2495977958\n[STDOUT RAW] out_time=00:41:35.977958\n[STDOUT RAW] dup_frames=0\n[STDOUT RAW] drop_frames=0\n[STDOUT RAW] speed= 167x\n[STDOUT RAW] progress=continue\n[STDOUT RAW] bitrate= 127.8kbits/s\n[STDERR RAW] size=   38912KiB time=00:41:35.97 bitrate= 127.7kbits/s speed= 167x\n[STDOUT RAW] total_size=41418752\n[STDOUT RAW] out_time_us=2592049958\n[STDOUT RAW] out_time_ms=2592049958\n[STDOUT RAW] out_time=00:43:12.049958\n[STDOUT RAW] dup_frames=0\n[STDOUT RAW] drop_frames=0\n[STDOUT RAW] speed= 168x\n[STDOUT RAW] progress=continue\n[STDERR RAW] size=   40448KiB time=00:43:12.04 bitrate= 127.8kbits/s speed= 168x\n[STDOUT RAW] bitrate= 127.6kbits/s\n[STDOUT RAW] total_size=42991616\n[STDOUT RAW] out_time_us=2694697958\n[STDOUT RAW] out_time_ms=2694697958\n[STDOUT RAW] out_time=00:44:54.697958\n[STDOUT RAW] dup_frames=0\n[STDOUT RAW] drop_frames=0\n[STDOUT RAW] speed= 168x\n[STDOUT RAW] progress=continue\n[STDERR RAW] size=   41984KiB time=00:44:54.69 bitrate= 127.6kbits/s speed= 168x\n[STDOUT RAW] bitrate= 127.5kbits/s\n[STDOUT RAW] total_size=44564480\n[STDOUT RAW] out_time_us=2796649958\n[STDOUT RAW] out_time_ms=2796649958\n[STDOUT RAW] out_time=00:46:36.649958\n[STDOUT RAW] dup_frames=0\n[STDOUT RAW] drop_frames=0\n[STDOUT RAW] speed= 169x\n[STDOUT RAW] progress=continue\n[STDERR RAW] size=   43520KiB time=00:46:36.64 bitrate= 127.5kbits/s speed= 169x\n[STDOUT RAW] bitrate= 127.7kbits/s\n[STDOUT RAW] total_size=46137344\n[STDOUT RAW] out_time_us=2891281958\n[STDOUT RAW] out_time_ms=2891281958\n[STDOUT RAW] out_time=00:48:11.281958\n[STDOUT RAW] dup_frames=0\n[STDOUT RAW] drop_frames=0\n[STDOUT RAW] speed= 170x\n[STDOUT RAW] progress=continue\n[STDERR RAW] size=   45056KiB time=00:48:11.28 bitrate= 127.7kbits/s speed= 170x\n[STDOUT RAW] bitrate= 127.8kbits/s\n[STDOUT RAW] total_size=47710208\n[STDOUT RAW] out_time_us=2986705958\n[STDOUT RAW] out_time_ms=2986705958\n[STDOUT RAW] out_time=00:49:46.705958\n[STDOUT RAW] dup_frames=0\n[STDOUT RAW] drop_frames=0\n[STDOUT RAW] speed= 170x\n[STDOUT RAW] progress=continue\n[STDERR RAW] size=   46592KiB time=00:49:46.70 bitrate= 127.8kbits/s speed= 170x\n[STDERR RAW] size=   47286KiB time=00:50:26.18 bitrate= 128.0kbits/s speed= 171x\n[STDOUT RAW] bitrate= 128.0kbits/s\n[STDOUT RAW] total_size=48420524\n[STDOUT RAW] out_time_us=3026188000\n[STDOUT RAW] out_time_ms=3026188000\n[STDOUT RAW] out_time=00:50:26.188000\n[STDOUT RAW] dup_frames=0\n[STDOUT RAW] drop_frames=0\n[STDOUT RAW] speed= 171x\n[STDOUT RAW] progress=end\n[ConversionWorker] STDERR pipe closed signal received.\n[ConversionWorker] Detected 'progress=end' for 高冷 06.wav\n[ConversionWorker] STDOUT pipe closed signal received.\n[ConversionWorker] Process finished and both stream pipes closed. Exiting loop.\n[ConversionWorker] Waiting for reader threads to join...\n[ConversionWorker] FFmpeg process ended. Return code: 0\n[ConversionWorker] Closing FFmpeg log file.\n